<?xml version="1.0" encoding="UTF-8"?>
<!-- Created with Inkscape (http://www.inkscape.org/) -->
<svg width="368.14mm" height="173.37mm" version="1.1" viewBox="0 0 368.14 173.37" xmlns="http://www.w3.org/2000/svg" xmlns:cc="http://creativecommons.org/ns#" xmlns:dc="http://purl.org/dc/elements/1.1/" xmlns:rdf="http://www.w3.org/1999/02/22-rdf-syntax-ns#">
 <metadata>
  <rdf:RDF>
   <cc:Work rdf:about="">
    <dc:format>image/svg+xml</dc:format>
    <dc:type rdf:resource="http://purl.org/dc/dcmitype/StillImage"/>
    <dc:title/>
   </cc:Work>
  </rdf:RDF>
 </metadata>
 <g transform="translate(92.343 -56.357)">
  <path d="m198.95 229.68c-0.43657-0.0619-1.8653-0.34622-3.175-0.63183-4.2224-0.9208-24.404-1.6461-28.575-1.027-4.9378 0.7329-9.096 0.90744-12.654 0.53117-4.7602-0.50341-30.95-0.68844-38.146-0.26951-4.09 0.2381-7.9354 0.23293-16.933-0.0228-6.4029-0.18195-16.345-0.33572-22.093-0.34172-9.1569-0.01-10.844 0.0533-13.626 0.50757-2.9129 0.47568-4.6602 0.52147-21.167 0.55483-9.8954 0.02-20.671 0.15079-23.945 0.29067-3.5922 0.15347-10.78 0.16817-18.124 0.0371-6.694-0.11949-15.147-0.26424-18.785-0.32165-3.638-0.0574-7.2694-0.23718-8.0698-0.39947-2.6049-0.52821-8.6545-0.82836-19.976-0.99114l-11.112-0.15977-5.1379-1.0312c-5.9476-1.1937-7.6388-1.7502-9.4356-3.1049-0.71582-0.53967-2.2044-1.6038-3.3079-2.3646-3.3014-2.2763-6.2158-6.2869-7.0745-9.7352-0.78469-3.1513-1.5118-5.5612-2.4263-8.0414-0.54331-1.4735-0.95762-3.3121-1.2152-5.3927-0.21495-1.7363-0.44427-3.2433-0.50959-3.349-0.0653-0.10569-0.30126-1.4278-0.52431-2.9381-0.22306-1.5103-0.6361-3.8175-0.91786-5.1272-0.81973-3.8102-1.3335-6.7016-1.329-7.4798 2e-3 -0.39723-0.34918-2.0914-0.78103-3.7649-1.9554-7.5775-2.2706-11.599-2.2496-28.707 0.0136-11.126 0.0852-13.587 0.45032-15.478 0.23877-1.2369 0.55807-3.5586 0.70957-5.1594s0.44681-4.3392 0.65625-6.0854c0.20945-1.7462 0.51177-4.8419 0.67183-6.8792 0.40231-5.1206 1.0291-10.494 1.4813-12.7 0.20884-1.0186 0.37981-2.3331 0.37993-2.921 3.5e-4 -1.7291 0.70981-3.9953 2.4062-7.686 2.2084-4.8047 3.7625-7.3132 6.7082-10.828 1.3943-1.6636 2.6581-3.3482 2.8084-3.7434 0.52133-1.3712 2.6625-4.0618 4.4713-5.6185 2.4924-2.1452 4.2044-3.2541 9.1528-5.9288 4.5274-2.4471 9.2911-4.2259 13.612-5.0827 4.3649-0.86562 15.313-1.0678 46.425-0.85715 53.974 0.36537 69.944 0.60447 71.531 1.071 1.1246 0.33048 2.8806 0.41499 8.7312 0.42021 4.0279 4e-3 8.9309-0.0454 10.895-0.10889 11.407-0.36861 23.912-0.68793 31.089-0.79384 10.815-0.15959 21.404-0.58562 22.886-0.9208 1.4625-0.33057 39.075-0.89684 46.302-0.69708 6.3419 0.17529 16.509 0.85104 20.77 1.3804 10.84 1.3469 27.053 6.3356 37.835 11.642 7.3349 3.6096 12.823 8.602 17.289 15.728 1.3915 2.22 4.0962 9.4946 4.6712 12.564 0.24535 1.3097 0.67191 3.3337 0.9479 4.4979 0.55215 2.3293 1.6323 9.1658 2.0693 13.097 0.63396 5.7034 0.82235 10.527 1.0884 27.871 0.20458 13.335 0.38441 18.962 0.67146 21.006 1.27 9.0476 1.8664 25.877 1.0635 30.012-0.77391 3.9848-3.5581 11.116-5.3933 13.813-2.761 4.0586-7.8146 9.1622-11.031 11.14-1.1642 0.71587-2.9501 2.082-3.9688 3.0357-2.2928 2.1468-4.9077 3.545-7.9708 4.2621-1.2914 0.30232-3.2762 0.83917-4.4107 1.193-1.4855 0.46332-2.9292 0.68175-5.1594 0.78067-1.7032 0.0755-4.4064 0.25135-6.0071 0.39069-6.1732 0.53736-12.536 0.79328-21.96 0.88329-5.3843 0.0514-10.147 0.0429-10.583-0.019zm-136.66-6.2332c2.0957-1.6961 3.4396-3.5933 3.4396-4.8559 0-0.97018-0.7564-2.6869-1.4303-3.2462-0.30112-0.24991-0.34157-0.4699-0.15163-0.8248 0.14247-0.26619 0.25903-1.3344 0.25903-2.3738 0-1.736-0.063-1.9528-0.7734-2.6632-0.64654-0.64653-0.98828-0.77339-2.0834-0.77339-0.72051 0-1.8211 0.18031-2.4457 0.4007s-1.3372 0.33675-1.5835 0.25858c-0.71591-0.22722-1.3161 0.1405-1.3161 0.80635 0 0.3384 0.35719 2.0006 0.79375 3.6937s0.79375 3.5812 0.79375 4.1956c0 0.61443 0.1786 1.8028 0.39688 2.6409s0.39687 1.8197 0.39687 2.1816c0 0.92859 0.75041 1.9631 1.4195 1.957 0.31069-3e-3 1.3388-0.63156 2.2847-1.3971zm-1.8356-2.6021c-0.1904-0.74291-0.4254-2.0226-0.52223-2.8438l-0.17604-1.4931 1.5555 7e-3c1.6564 8e-3 2.1431 0.3365 2.4794 1.6759 0.18161 0.72326-0.90482 2.4104-2.1796 3.3848l-0.81088 0.6198-0.34619-1.3508zm-1.5129-7.4632-0.54895-1.8938 0.82425-0.37241c0.45334-0.20482 1.36-0.38341 2.0149-0.39687l1.1906-0.0245 0.0803 1.2478c0.0979 1.5211-0.28643 2.3241-1.1122 2.3241-0.33905 0-0.90523 0.22714-1.2582 0.50476l-0.64171 0.50477zm22.313 7.8709c1.2317-0.91379 1.9281-2.4108 1.9331-4.1554 7e-3 -2.5545-0.57009-3.1987-3.3691-3.7593-0.79227-0.15868-0.85989-0.25272-0.85989-1.1958v-1.0236l0.79928 0.27863c0.92438 0.32224 1.582-0.0441 1.582-0.88122 0-0.59477-1.4054-1.277-2.6305-1.277-1.188 0-1.7852 1.4498-1.6413 3.9843 0.063 1.1096 0.63338 1.5946 2.4335 2.069l1.706 0.44968-0.0116 1.3843c-0.01 1.1461-0.13584 1.5085-0.73373 2.1063-0.65688 0.65678-0.90211 0.72263-2.7142 0.72884-1.4617 5e-3 -2.0578 0.11068-2.2388 0.39687-0.34153 0.54007-0.31883 0.68507 0.18634 1.1902 0.67218 0.67219 4.5309 0.46679 5.559-0.29589zm10.09-1.155c0.68077-0.92079 0.69511-1.0272 0.21242-1.5774-0.24822-0.28289-0.40404-1.3784-0.48281-3.3943l-0.11629-2.9766h2.4516c1.48 0 2.522-0.114 2.6293-0.28764 0.46371-0.7503 0.78018 0.4525 0.79271 3.0129 0.0149 3.0423 0.31909 3.9534 1.4807 4.4345 2.3739 0.9833 5.5898-1.3788 6.3122-4.6364 0.55984-2.5247-0.19907-4.6599-1.9367-5.4488-1.9746-0.89651-4.1164-0.54209-5.4474 0.90145-0.54101 0.58675-0.67968 0.63175-0.92604 0.30049-0.52059-0.69999-11.264-0.54895-12.659 0.17798-0.53617 0.27928-0.61552 1.1537-0.13229 1.4577 0.1819 0.11443 1.4916 0.1694 2.9104 0.12214l2.5797-0.0859v3.8796c0 2.1684 0.12082 4.1054 0.2739 4.3914 0.40878 0.76381 1.3878 0.63475 2.0576-0.27127zm7.6217-2.8026c-0.09-0.23452-0.16362-1.3037-0.16362-2.376 0-1.5368 0.0925-2.0013 0.43662-2.1939 0.32077-0.17951 0.394-0.45748 0.27599-1.0476-0.11798-0.58988-0.0507-0.84538 0.25316-0.962 0.67595-0.25938 2.4406 0.34828 2.7635 0.95161 0.43657 0.81574 0.16015 3.2829-0.46102 4.1149-1.0553 1.4135-2.8139 2.2705-3.1046 1.513zm-25.56 2.4612c1.3317-0.905 1.9289-2.3119 2.0626-4.8592 0.0631-1.203 0.0385-2.5939-0.0547-3.0909-0.23998-1.2792-1.5793-3.1871-2.6373-3.7568-0.87364-0.47049-0.92187-0.46988-1.7585 0.0222-1.3321 0.78359-2.9443 4.1091-3.1012 6.397-0.10844 1.5814-0.037 1.9436 0.63464 3.2178 0.56887 1.0793 1.0455 1.5885 1.9192 2.0505 1.4451 0.76417 1.8355 0.76674 2.9352 0.0194zm-2.3303-1.9126c-0.85964-0.72334-1.328-2.064-0.90696-2.5962 0.13923-0.17594 0.40394-1.1533 0.58826-2.172 0.18431-1.0186 0.51329-2.2038 0.73105-2.6337l0.39593-0.78164 0.62886 0.78164c1.5519 1.9289 1.5514 6.0364-1e-3 7.4948l-0.62637 0.58845-0.80978-0.68139zm-109.72 0.92135c5.6832-0.36499 25.768-0.70591 28.798-0.48881 3.7479 0.26854 52.401 0.24462 54.982-0.027 1.259-0.13251 3.1632-0.50124 4.2315-0.81941 1.0684-0.31817 2.1928-0.60597 2.4987-0.63955 1.1356-0.12466 1.5615-0.96554 0.84967-1.6774-0.47887-0.47887-1.4166-0.38983-4.3188 0.41011l-2.6398 0.7276h-39.555c-21.755 0-40.627 0.0933-41.936 0.20736-3.9255 0.34184-24.584 0.68599-28.707 0.47823-4.3374-0.21852-5.2917-0.0497-5.2917 0.9361 0 0.35413 0.14883 0.69733 0.33073 0.76266 1.6953 0.6089 21.968 0.69467 30.758 0.13013zm147.06-0.20969c0.32782-0.36224 0.44613-1.1491 0.50403-3.3526l0.0757-2.8792 2.3632 3.1009c2.0255 2.6577 2.4579 3.0896 3.0252 3.0218 0.99719-0.11911 1.1308-1.1025 0.83728-6.1637-0.21711-3.7442-0.33668-4.5526-0.71415-4.8286-0.24935-0.18233-0.54117-0.33151-0.64848-0.33151-0.40345 0-1.0515 0.87663-0.91361 1.2359 0.0789 0.20567 0.22137 1.7084 0.31655 3.3393l0.17305 2.9654-1.7718-2.1167c-0.97449-1.1642-2.0022-2.6307-2.2839-3.2589-0.44527-0.99318-0.60702-1.1313-1.2395-1.0583-0.46672 0.0538-0.8412 0.32243-1.0448 0.74945-0.34593 0.72541-0.55027 9.2441-0.23402 9.7558 0.27497 0.44491 1.0738 0.35291 1.5553-0.1791zm109.34-3.1279c1.1863-0.24533 2.5448-0.3599 3.2011-0.26995 0.62706 0.0859 2.0639 0.0413 3.1928-0.0991 1.129-0.14047 7.1724-0.31383 13.43-0.38524 12.58-0.14357 17.032-0.32967 17.529-0.73271 0.49495-0.40141 0.39886-1.2067-0.18106-1.517-0.66333-0.35501-4.0438-0.35206-5.8682 5e-3 -0.78386 0.15347-6.4258 0.33781-12.538 0.40965-14.678 0.17252-17.997 0.29013-19.579 0.69367-2.0101 0.51273-16.578 0.37091-21.259-0.20695-3.1411-0.38777-5.0413-0.41885-14.592-0.23873-12.669 0.23895-13.595 0.22411-16.801-0.26921-1.3097-0.2015-4.4648-0.49504-7.0115-0.65231-2.5466-0.15726-5.9994-0.42767-7.6729-0.60089-3.8934-0.403-23.635-0.36097-26.591 0.0566-2.9699 0.41959-3.4265 0.5809-3.5218 1.2442-0.13042 0.90765 0.61863 1.1012 2.9926 0.77309 1.2876-0.17794 6.6247-0.28925 13.626-0.2842 12.41 9e-3 17.65 0.3165 27.482 1.6128 3.738 0.4928 7.5653 0.54935 18.687 0.27611 6.9348-0.17037 9.4662-0.13642 12.303 0.16498 5.357 0.56914 20.453 0.58229 23.171 0.0202zm-249.06-12.448c1.3416-0.67571 1.6194-1.6764 1.555-5.6007-0.0824-5.0183-1.1775-8.6668-4.0839-13.605-1.7793-3.0233-2.9382-4.5182-6.363-8.2075-1.937-2.0867-3.0303-3.0375-4.0872-3.5546l-1.4428-0.70591 0.76396-0.6102c0.42018-0.33561 1.4783-0.99017 2.3515-1.4546 2.1674-1.1528 4.4573-3.395 5.4059-5.2933 2.1202-4.2428 1.6364-10.115-1.0756-13.057-2.3041-2.4996-8.859-4.6723-12.782-4.2368-0.88122 0.0978-3.2096 0.5145-5.1741 0.92593s-4.2267 0.83519-5.0271 0.94169c-0.80037 0.1065-1.7358 0.29979-2.0787 0.42952-0.34292 0.12973-3.1409 0.89002-6.2177 1.6895-6.1731 1.6041-8.6824 2.6386-9.3008 3.8343-0.80725 1.561-0.28234 3.4474 1.2036 4.3252 1.0012 0.59143 1.9134 0.54395 3.8052-0.19809 0.88454-0.34696 2.0392-0.70662 2.5658-0.79924l0.95755-0.16842 0.17853 2.1883c1.4366 17.609 3.4545 32.475 4.909 36.165 0.29422 0.74645 0.67483 2.2177 0.84578 3.2695 0.26789 1.6481 0.44658 2.0494 1.2933 2.9045 0.88632 0.89507 1.1181 0.99219 2.3677 0.99219 1.2649 0 1.4777-0.0926 2.451-1.0659l1.0659-1.0659-0.15184-2.3076c-0.0835-1.2692-0.44233-3.2601-0.79739-4.4242-0.9483-3.1093-3.4356-17.129-3.066-17.281 0.11078-0.0455 0.50474 0.11594 0.87549 0.35886 0.51771 0.33922 0.93572 0.39417 1.8021 0.23691 1.7623-0.3199 9.2712-0.22019 10.355 0.1375 1.0363 0.34201 4.6901 4.207 6.5136 6.8902 2.7592 4.0598 4.7636 9.5416 4.766 13.034 2e-3 3.6015 0.60438 4.9461 2.5121 5.6112 1.1079 0.38631 1.8955 0.31065 3.1044-0.29822zm-31.755-38.366c-0.31871-2.741-0.65494-5.7695-0.74719-6.73l-0.16771-1.7464 1.2892-0.32893c0.70909-0.1809 2.3608-0.48684 3.6705-0.67986 1.3097-0.19301 3.8093-0.60153 5.5546-0.90782 3.5996-0.63169 4.5684-0.57417 7.7661 0.46106 2.6639 0.86244 3.102 1.4254 2.8686 3.6865-0.24347 2.359-1.0768 3.4288-3.9275 5.0423-1.3598 0.76962-3.3932 2.2224-4.5187 3.2284-1.4083 1.2588-2.3158 1.8673-2.9104 1.9517-0.47523 0.0675-2.1142 0.25861-3.6422 0.42478-1.528 0.16616-3.2006 0.36506-3.7171 0.442l-0.93894 0.13988zm281.07 37.634c1.4807-0.97016 1.5494-1.3109 1.5182-7.5231-0.0209-4.1409-0.15412-6.4221-0.48162-8.2398-0.24911-1.3824-0.52615-4.508-0.61566-6.9457l-0.16277-4.4322 3.0672 2.7e-4c2.6813 2.6e-4 3.2105-0.0754 4.2055-0.60153 1.2151-0.64246 2.12-1.9666 2.12-3.1021 0-1.0142-0.86646-2.4188-1.8014-2.9202-0.70799-0.3797-1.3916-0.42752-4.509-0.31541l-3.6745 0.13215-0.16917-1.6894c-0.0931-0.92917-0.28824-4.298-0.43373-7.4863-0.1455-3.1883-0.37566-6.8197-0.51147-8.0698-0.13583-1.2501-0.32805-3.5231-0.42719-5.051-0.10989-1.6936-0.3365-3.0482-0.58047-3.4699-1.2029-2.0791-4.4211-2.0327-5.5133 0.0794-0.35909 0.69441-0.4069 1.413-0.28575 4.295 0.29879 7.1081 0.71205 22.198 0.61066 22.3-0.0578 0.0578-1.399 0.17175-2.9804 0.25314-3.4354 0.17682-5.3582 0.86887-6.0315 2.1707-1.2458 2.4092 0.61468 5.1492 3.1747 4.6755 0.57192-0.10583 2.2426-0.24773 3.7127-0.31534l2.6729-0.12292 0.17061 5.1095c0.0938 2.8102 0.29498 5.7048 0.44698 6.4324 0.15201 0.7276 0.36071 3.8923 0.46379 7.0327l0.18743 5.7098 0.76176 0.99812c0.41897 0.54896 1.1334 1.1661 1.5875 1.3713 0.97994 0.44289 2.5747 0.31677 3.478-0.27505zm-222.26-1.2186c1.4552-0.30533 2.9906-0.7559 3.4119-1.0013 2.5978-1.5128 2.4777-4.6341-0.22999-5.9781-1.009-0.50086-1.0369-0.50021-3.4459 0.0806-1.3358 0.32202-3.4897 0.64519-4.7865 0.71814l-2.3578 0.13265-1.6545-1.0801c-2.4009-1.5673-3.0438-2.6725-3.1915-5.4862l-0.11878-2.2632 1.6886 0.16867c0.92875 0.0928 4.5666 0.24276 8.084 0.33331 6.2963 0.16209 6.4102 0.1555 7.3504-0.42558 1.7513-1.0824 2.4799-3.7602 1.7303-6.3595-0.1466-0.50837-0.44911-1.9959-0.67226-3.3056-0.55628-3.2649-0.82937-4.0066-1.9194-5.2131-1.7983-1.9905-2.4645-2.1825-7.9163-2.2817-5.5252-0.10045-7.1009 0.19108-9.0085 1.6667-2.2863 1.7686-3.4851 3.6711-4.8912 7.7628-0.98893 2.8777-1.0714 3.344-1.1885 6.7162-0.0757 2.1814-2e-3 4.3403 0.18497 5.424 0.43426 2.5153 1.8187 5.2744 3.3729 6.722 1.7464 1.6266 4.9578 3.5747 6.7007 4.0646 1.8411 0.51755 5.2264 0.36644 8.8572-0.39537zm-6.2177-20.905c-0.80036-0.11064-2.2669-0.21294-3.259-0.22733-1.7408-0.0253-1.7977-0.047-1.6299-0.62148 0.30626-1.0485 1.8283-3.1214 2.3753-3.2349 0.29104-0.0604 2.1525-0.1847 4.1366-0.27615l3.6074-0.16628 0.30526 1.6733c0.1679 0.92033 0.37413 2.0007 0.45831 2.4009l0.15304 0.7276-2.346-0.0373c-1.2903-0.0205-3.0008-0.12778-3.8012-0.23842zm34.92 20.628c2.7241-1.2357 3.7207-3.0366 4.3811-7.9171 0.72321-5.3449 0.98905-14.963 0.83368-30.162-0.10749-10.516-0.0634-15.197 0.1554-16.491 0.27703-1.6379 0.257-1.8961-0.21486-2.7699-1.0733-1.9877-3.32-2.7202-5.0701-1.6531-2.3136 1.4107-2.4239 2.2104-2.6342 19.103l-0.17674 14.196-3.4699 0.0911c-3.3259 0.0873-3.5465 0.12862-5.3155 0.99537-2.5078 1.2287-7.2057 5.8549-8.24 8.1141-1.8248 3.986 9e-3 7.8627 5.8652 12.401 2.7597 2.1385 4.9454 3.4286 6.7469 3.9824 0.80037 0.24602 1.5743 0.4857 1.7198 0.53262 0.14552 0.0469 1.1576 0.0921 2.249 0.10038 1.4548 0.0111 2.3009-0.12848 3.1702-0.52282zm-5.7941-7.5311c-2.4281-1.1303-6.7869-4.4754-7.4528-5.7196-0.20444-0.382 0.0996-0.8717 1.595-2.5687 2.0698-2.3488 3.0852-3.0725 4.6748-3.3316 1.0403-0.16959 1.0946-0.14416 1.2395 0.58011 0.19624 0.98118 1.4035 2.1793 2.3959 2.3778l0.78022 0.15604-0.16329 4.1476c-0.0898 2.2812-0.23953 4.3463-0.33272 4.5892-0.23677 0.61701-1.0656 0.54712-2.7367-0.23078zm236.8 7.4064c1.6083-0.8317 2.276-2.9821 1.4324-4.6135-0.21717-0.41999-1.0804-1.2934-1.9182-1.941-3.0476-2.3554-7.7177-7.8506-8.1214-9.5561-0.26564-1.1224-1.0728-2.1452-1.9941-2.5268-0.63731-0.26398-0.80061-0.49213-0.80061-1.1186 0-1.0645-0.71223-2.1966-1.7251-2.7421-0.68373-0.36823-1.3225-0.42691-3.5034-0.3219-3.676 0.17702-4.9095 0.80634-8.4294 4.3008-2.4969 2.4788-2.7271 2.7962-3.246 4.4764-1.1946 3.8677-0.57039 5.6779 3.2201 9.3374 3.0048 2.9011 4.3664 3.6137 6.937 3.6308 2.9936 0.0198 4.9901-1.1471 7.1903-4.2028l0.57057-0.79242 1.8081 1.7306c1.7327 1.6585 4.3949 3.7993 5.5123 4.4329 0.75329 0.42713 2.1426 0.38474 3.0676-0.0936zm-18.818-8.4926c-1.1095-0.73885-3.1677-2.8315-3.1677-3.2206 0-0.20288 0.85349-1.2491 1.8967-2.3249 1.7405-1.795 2.8645-2.4779 4.0884-2.484 0.50437-2e-3 0.71001 3.4614 0.27963 4.7106-0.39782 1.1547-1.966 3.7546-2.2647 3.7546-0.098 0-0.47252-0.19604-0.83233-0.43564zm-42.771 7.1924c3.0358-0.79351 4.2912-1.3833 5.4843-2.5764 1.2865-1.2865 1.9176-2.9284 1.9176-4.9887 0-5.0137-3.1444-8.9455-9.7351-12.173-2.0665-1.012-3.3899-1.8347-3.7904-2.3566l-0.61543-0.80176h3.3527c3.683 0 4.4433-0.2314 5.2506-1.598 0.86723-1.4681 0.33751-3.4315-1.1653-4.3192-0.60756-0.35889-1.5737-0.43274-5.6612-0.43274-5.5748 0-6.1879 0.14196-7.5028 1.7371-1.1995 1.4552-1.5367 3.3178-0.98814 5.4588 0.93586 3.653 3.2739 6.2195 7.6263 8.3717 3.2597 1.6118 5.5469 3.5764 5.8685 5.0407 0.10573 0.48136 0.0909 0.97068-0.033 1.0874-0.33811 0.31856-4.2171 1.0584-5.5492 1.0584-0.64146 0-1.8595-0.19273-2.7068-0.42829-1.4819-0.412-1.5878-0.40736-2.7844 0.12197-1.0182 0.4504-1.3414 0.7706-1.781 1.7643-0.59137 1.3369-0.52477 2.1607 0.28189 3.4872 0.5125 0.84272 2.3299 1.7082 4.6414 2.2102 1.6667 0.36203 5.0577 0.077 7.8894-0.66319zm-62.841-0.0344c1.1065-0.55137 1.5536-0.98807 2.279-2.2257 0.49632-0.84684 1.0685-2.1157 1.2714-2.8198l0.36904-1.28 0.43079 0.81604c0.74521 1.4116 2.552 3.524 3.6169 4.2288 1.238 0.81926 4.0659 1.5261 5.2383 1.3093 1.1515-0.21289 2.3533-1.2751 2.7283-2.4114 0.65023-1.9702-0.47016-4.073-2.4754-4.6458-0.60774-0.17362-1.2756-0.44366-1.484-0.60009-0.70267-0.52721-4.0083-5.8207-5.2169-8.3542-0.65952-1.3824-1.4173-2.938-1.6839-3.4568-0.32001-0.62264-0.40312-1.0723-0.24452-1.3229 0.36522-0.57718 0.29467-2.0362-0.13902-2.8748-0.91851-1.7762-3.3782-2.9342-6.2091-2.923-2.1718 9e-3 -3.3007 0.66281-6.6735 3.8675-5.6183 5.3383-6.459 6.5046-7.1235 9.882-0.91372 4.6443 0.87626 9.2049 4.4303 11.288 3.7323 2.1873 8.277 2.8231 10.886 1.5231zm-4.9159-6.6197c-3.2208-0.82957-3.8973-1.6292-3.7009-4.3747l0.13428-1.8766 5.887-5.887v2.2608c0 2.6926-0.48864 9.0975-0.745 9.7652-0.16679 0.43441-0.29081 0.44325-1.5754 0.1124zm36.57 5.3318c2.3891-0.72997 3.9145-1.6196 6.6326-3.8679 2.91-2.4071 3.94-4.1061 4.372-7.2121 0.52773-3.7944-0.26096-5.5055-4.4805-9.7204-3.8555-3.8513-4.6208-4.2446-8.3722-4.3034l-2.6914-0.0422-0.17961-4.1824c-0.40496-9.43-0.67872-22.155-0.52259-24.292 0.13951-1.9092 0.0904-2.4096-0.30145-3.073-1.2809-2.1683-4.4603-2.1888-5.5736-0.0359-0.66695 1.2898-0.92078 9.5396-0.82112 26.688 0.0849 14.615 0.11083 15.295 0.65867 17.284 0.31364 1.1386 0.64109 2.1848 0.72766 2.3249 0.33398 0.54039 0.88385 4.8388 0.75261 5.8833-0.25706 2.0458 1.1702 3.7795 3.3523 4.0722 0.64177 0.0861 1.5244 0.37457 1.9615 0.64109 1.0577 0.64503 1.9422 0.61262 4.4851-0.16436zm-2.5002-7.3349c-5.3e-4 -1.0974-0.6303-4.4855-1.319-7.0954-0.70371-2.6667-0.68281-3.329 0.12169-3.8562 0.49896-0.32693 0.9695-0.38543 1.981-0.24632 1.2575 0.17295 1.444 0.31033 3.579 2.6361 2.1379 2.329 2.2523 2.5149 2.2523 3.6587 0 1.1507-0.0806 1.2785-1.7859 2.8317-1.7118 1.5592-2.9508 2.3684-4.2333 2.765-0.53468 0.16532-0.59535 0.0947-0.59567-0.69366zm-114 7.4492c2.1376-0.21223 3.1013-0.44744 4.3831-1.0697 2.6787-1.3004 4.8738-4.2064 5.9073-7.8206 0.72058-2.5197 0.82679-16.698 0.17516-23.381-0.5933-6.085-0.68456-14.024-0.21028-18.294 0.35537-3.1992 0.34903-3.3882-0.14565-4.3414-0.28446-0.54813-0.92791-1.2228-1.4299-1.4994-1.7873-0.98453-4.242-0.0193-4.7215 1.8566-0.98586 3.8564-1.3134 15.173-0.70981 24.527 0.61445 9.5218 0.64968 11.024 0.25493 10.873-1.1079-0.42513-4.1002-0.76836-6.8488-0.78558-2.8929-0.0181-3.3077 0.0418-4.6686 0.67375-1.0384 0.48226-1.817 1.1028-2.5549 2.0363-1.6411 2.0761-2.0019 3.2896-1.8397 6.1868 0.20531 3.6664 0.85277 5.1228 3.4806 7.8294 2.5934 2.6712 3.0855 2.9535 6.0176 3.4523 0.0937 0.0159 1.4034-0.0934 2.9104-0.24306zm-3.9336-7.856c-1.1424-1.0456-1.4367-1.5047-1.6981-2.6494-0.23909-1.0471-0.24222-1.5471-0.0128-2.0505 0.29805-0.65414 0.35549-0.66576 3.2856-0.66431 3.7497 2e-3 4.6494 0.25212 5.4547 1.5173 0.54255 0.85241 0.58454 1.0943 0.33468 1.9282-0.15713 0.52446-0.67443 1.3902-1.1496 1.9238-0.81636 0.91689-0.97294 0.97818-2.8482 1.1149l-1.9844 0.14471-1.3819-1.2647zm66.649 6.456c1.6948-1.1504 2.1932-3.5463 1.0667-5.1284-1.2128-1.7032-1.58-1.7552-10.858-1.5382l-8.3326 0.1949 0.17696-6.0485c0.0973-3.3266 0.23972-8.906 0.31642-12.398 0.0818-3.7243 0.32042-7.6082 0.5771-9.3927 0.53893-3.747 0.5913-15.369 0.0805-17.859-0.63282-3.0848-2.0988-4.8948-3.9643-4.8948-2.4152 0-3.9292 2.5219-2.8273 4.7095 0.19794 0.39296 0.4287 1.4288 0.51279 2.302 0.26149 2.7152-0.26941 12.444-0.85656 15.696-0.76903 4.2597-1.1559 14.888-0.88939 24.435 0.23267 8.3351 0.21115 8.2335 2.0311 9.5923 0.98959 0.73884 2.1587 0.81187 12.997 0.81187 8.5179 0 9.3173-0.0386 9.9696-0.4814zm17.43-60.427c0.97734-0.82237 1.5718-2.0681 1.5718-3.2938 0-2.508-3.4016-5.9007-8.0686-8.0477-1.5286-0.70319-2.7793-1.3532-2.7793-1.4444 0-0.30252 3.3363-0.78638 5.4545-0.79104 2.5586-6e-3 5.2091-0.54214 6.5307-1.3219 0.54567-0.32195 1.3015-1.1133 1.6797-1.7586 1.2025-2.052 0.61088-4.4135-1.4588-5.8226-0.89996-0.61274-1.4222-0.684-8.7665-1.1961-6.9952-0.48779-6.9161-0.49583-9.7896 0.99477-2.3602 1.2243-2.5583 1.3922-3.2467 2.7517-0.40326 0.79631-0.91624 1.5503-1.14 1.6755-0.97418 0.54517-9.3423-0.2521-13.407-1.2773-1.0604-0.26749-0.88971-0.65534 0.28841-0.65534 0.5588 0 1.8982-0.22608 2.9766-0.50241 1.9692-0.50463 8.3365-3.1855 10.56-4.446 3.707-2.1019 5.5691-5.7566 4.3813-8.5992-0.48678-1.165-2.4532-3.3551-4.0936-4.5593-1.8624-1.3671-3.8531-1.7935-8.0549-1.7254-4.7306 0.0766-11.612-0.33197-11.733-0.69666-0.0525-0.15864 0.53327-1.0068 1.3016-1.8848 0.76836-0.87803 2.1427-2.5552 3.054-3.7271 1.5979-2.0547 4.7403-5.0799 5.2766-5.0799 0.14321 0 0.47143 0.2332 0.72938 0.51824 0.25795 0.28503 1.0682 0.71726 1.8006 0.96053 0.84553 0.28083 1.882 0.94832 2.8395 1.8285 1.9181 1.7633 3.3922 2.6214 6.7226 3.913 6.3067 2.446 6.1539 2.4062 9.2847 2.418 2.4858 9e-3 3.1085-0.0781 4.2684-0.59956 3.2046-1.4408 4.3957-4.488 2.592-6.6316-0.77593-0.92213-3.5587-2.5362-5.0318-2.9186-1.6568-0.43005-4.4286-1.1077-5.0036-1.2234-0.29104-0.0585-0.94588-0.36789-1.4552-0.68749l-0.92604-0.58109 0.66146-0.19177c1.186-0.34385 4.3255-0.2487 5.0271 0.15235 0.97401 0.55679 2.0988 0.47948 4.1262-0.28363 3.6351-1.3682 5.6833-3.5241 5.8757-6.1846 0.15414-2.1309-0.4522-3.3554-2.0007-4.0404-1.0822-0.4787-1.6761-0.50808-8.3534-0.41325l-7.1884 0.1021-2.1167 0.98835c-3.126 1.4596-5.6054 2.7842-7.5406 4.0285-1.0097 0.64921-2.703 1.4017-4.101 1.8226-1.3097 0.39428-2.917 1.0243-3.5719 1.4002-1.6798 0.96402-4.934 4.1757-7.842 7.7395-1.3655 1.6735-3.2034 3.8761-4.0842 4.8948-0.88078 1.0186-2.008 2.4637-2.5048 3.2112-0.95306 1.4338-1.2934 1.5825-5.4127 2.3651-1.357 0.25778-2.2182 0.76827-2.6466 1.5688-0.60157 1.124-2.0692 1.7184-4.2431 1.7184-1.036 0-2.9812 0.12944-4.3227 0.28764l-2.439 0.28765-3.1397-2.0074c-2.5993-1.6619-3.3258-2.0073-4.2207-2.0064-1.4084 1e-3 -2.5884 0.74341-3.2091 2.0183-0.45614 0.93681-0.5003 1.7735-0.52181 9.887-0.0172 6.4752 0.065 9.0937 0.30513 9.7176 0.45608 1.1854 1.7658 1.9232 3.4032 1.9172 1.7863-7e-3 3.2852-0.74064 5.1565-2.5256l1.5618-1.4896 8.8953 0.0392c9.8406 0.0434 9.4096-0.023 12.311 1.8982 2.9935 1.9824 9.68 4.5383 13.086 5.0022 1.0186 0.13873 3.077 0.4297 4.574 0.64659 1.5742 0.22806 3.3756 0.32602 4.2722 0.2323 1.3951-0.14582 1.5993-0.10206 2.0405 0.43718 0.26964 0.32957 1.1618 1.3894 1.9827 2.3553 0.82082 0.96585 1.6725 2.187 1.8925 2.7137 0.9641 2.3074 3.3326 3.9645 7.1332 4.9904 1.0545 0.28467 2.9889 0.81041 4.2986 1.1683 1.3097 0.3579 3.1163 0.6569 4.0146 0.66444 1.4001 0.0118 1.7547-0.0884 2.4834-0.70154zm-23.034-31.564c0-0.14552 0.12609-0.26459 0.2802-0.26459s0.20662 0.11907 0.11668 0.26459c-0.0899 0.14552-0.21603 0.26458-0.2802 0.26458-0.0642 0-0.11668-0.11906-0.11668-0.26458z" stroke-width=".26458"/>
 </g>
</svg>
